<?xml version="1.0" encoding="UTF-8" standalone="no"?>
<!DOCTYPE svg PUBLIC "-//W3C//DTD SVG 1.1//EN" "http://www.w3.org/Graphics/SVG/1.1/DTD/svg11.dtd">
<svg width="100%" height="100%" viewBox="0 0 100 100" version="1.1" xmlns="http://www.w3.org/2000/svg" xmlns:xlink="http://www.w3.org/1999/xlink" xml:space="preserve" style="fill-rule:evenodd;clip-rule:evenodd;stroke-linejoin:round;stroke-miterlimit:1.41421;">
    <g transform="matrix(1.29217,0,0,1.33145,-106.399,-56.9803)">
        <g transform="matrix(1,0,0,1,-70.0949,-17.1255)">
            <path d="M191.382,77.943C191.716,77.949 192.049,77.96 192.382,77.981C192.957,78.017 193.531,78.079 194.101,78.166C195.926,78.446 197.71,78.987 199.383,79.768C201.373,80.698 203.202,81.966 204.773,83.5C206.343,85.033 207.653,86.829 208.63,88.794C209.45,90.443 210.033,92.207 210.358,94.02C210.722,96.057 210.76,98.152 210.473,100.201C210.195,102.19 209.606,104.132 208.734,105.941C207.713,108.059 206.306,109.988 204.604,111.61C202.842,113.291 200.767,114.639 198.512,115.561C196.174,116.516 193.656,117.006 191.13,117.006C188.605,117.006 186.086,116.516 183.749,115.561C181.494,114.639 179.419,113.291 177.656,111.61C175.955,109.988 174.548,108.059 173.527,105.941C172.655,104.132 172.066,102.19 171.788,100.201C171.5,98.152 171.539,96.057 171.903,94.02C172.227,92.207 172.811,90.443 173.631,88.794C174.608,86.829 175.918,85.033 177.488,83.5C179.059,81.966 180.888,80.698 182.878,79.768C184.551,78.987 186.334,78.446 188.16,78.166C188.73,78.079 189.304,78.017 189.879,77.981C190.212,77.96 190.545,77.949 190.879,77.943C191.131,77.941 191.13,77.941 191.382,77.943ZM190.94,82.781C190.254,82.794 189.57,82.846 188.892,82.95C187.521,83.159 186.182,83.565 184.926,84.152C183.481,84.827 182.149,85.739 180.995,86.84C179.8,87.979 178.797,89.319 178.044,90.789C177.414,92.018 176.96,93.336 176.7,94.692C176.395,96.283 176.355,97.925 176.58,99.53C176.789,101.023 177.231,102.481 177.885,103.839C178.654,105.434 179.714,106.886 180.995,108.108C182.322,109.373 183.883,110.388 185.58,111.082C187.397,111.825 189.359,112.191 191.321,112.166C193.275,112.141 195.219,111.726 197.01,110.942C198.688,110.208 200.223,109.156 201.518,107.861C202.771,106.609 203.796,105.131 204.526,103.516C205.15,102.139 205.556,100.665 205.728,99.163C205.919,97.494 205.826,95.792 205.448,94.156C205.138,92.815 204.637,91.52 203.965,90.319C203.159,88.879 202.11,87.577 200.876,86.481C199.726,85.461 198.418,84.621 197.01,84.005C195.736,83.447 194.383,83.074 193.003,82.898C192.318,82.811 191.63,82.777 190.94,82.781Z" style="fill:white;fill-rule:nonzero;"/>
        </g>
        <path d="M121.133,42.797C121.394,42.813 121.648,42.859 121.893,42.952C122.536,43.196 123.054,43.714 123.298,44.357C123.391,44.602 123.437,44.856 123.453,45.117C123.52,48.466 123.455,51.816 123.455,55.165C123.453,55.263 123.449,55.36 123.437,55.457C123.402,55.747 123.314,56.031 123.178,56.29C122.874,56.869 122.337,57.307 121.709,57.489C121.49,57.552 121.263,57.585 121.036,57.585C120.776,57.585 120.516,57.543 120.269,57.46C119.992,57.368 119.732,57.224 119.505,57.039C119.254,56.834 119.044,56.578 118.893,56.29C118.772,56.06 118.689,55.81 118.647,55.553C118.632,55.457 118.624,55.36 118.618,55.263C118.551,51.914 118.616,48.564 118.616,45.214C118.621,44.953 118.658,44.697 118.741,44.448C118.958,43.796 119.455,43.258 120.087,42.989C120.359,42.873 120.644,42.815 120.938,42.797C121.036,42.795 121.036,42.795 121.133,42.797Z" style="fill:white;fill-rule:nonzero;"/>
        <g transform="matrix(0.707107,0.707107,-0.707107,0.707107,92.2653,-62.0516)">
            <path d="M119.369,43.461C119.449,43.387 119.531,43.316 119.62,43.252C119.819,43.109 120.04,42.996 120.272,42.919C120.479,42.85 120.695,42.809 120.913,42.798C121.57,42.765 122.225,43.007 122.702,43.461C122.88,43.63 123.032,43.826 123.151,44.04C123.283,44.279 123.375,44.539 123.42,44.808C123.439,44.916 123.448,45.024 123.453,45.133C123.51,48.476 123.455,51.821 123.455,55.165C123.453,55.275 123.448,55.383 123.433,55.491C123.396,55.761 123.313,56.025 123.189,56.267C122.864,56.903 122.26,57.371 121.562,57.527C121.35,57.574 121.131,57.593 120.913,57.582C120.668,57.569 120.425,57.519 120.195,57.434C119.914,57.33 119.653,57.173 119.429,56.974C119.205,56.775 119.018,56.534 118.882,56.267C118.77,56.049 118.692,55.814 118.651,55.572C118.632,55.464 118.623,55.356 118.618,55.247C118.561,51.903 118.616,48.559 118.616,45.214C118.618,45.078 118.628,44.943 118.651,44.808C118.701,44.512 118.807,44.227 118.961,43.97C119.046,43.829 119.145,43.7 119.254,43.577C119.311,43.518 119.31,43.518 119.369,43.461Z" style="fill:white;fill-rule:nonzero;"/>
        </g>
        <g transform="matrix(0,1,-1,0,201.384,-40.6872)">
            <path d="M118.618,45.117C118.624,45.019 118.632,44.923 118.647,44.826C118.694,44.538 118.794,44.258 118.94,44.005C119.054,43.808 119.196,43.627 119.36,43.47C119.831,43.017 120.48,42.771 121.133,42.797C121.36,42.806 121.586,42.848 121.802,42.92C122.079,43.012 122.339,43.155 122.566,43.34C122.817,43.546 123.027,43.802 123.178,44.09C123.299,44.32 123.382,44.57 123.424,44.826C123.439,44.923 123.447,45.019 123.453,45.117C123.52,48.466 123.455,51.816 123.455,55.165C123.453,55.263 123.449,55.36 123.437,55.457C123.402,55.747 123.314,56.031 123.178,56.29C122.874,56.869 122.337,57.307 121.709,57.489C121.49,57.552 121.263,57.585 121.036,57.585C120.776,57.585 120.516,57.543 120.269,57.46C119.992,57.368 119.732,57.224 119.505,57.039C119.254,56.834 119.044,56.578 118.893,56.29C118.772,56.06 118.689,55.81 118.647,55.553C118.632,55.457 118.624,55.36 118.618,55.263C118.55,51.882 118.55,48.498 118.618,45.117Z" style="fill:white;fill-rule:nonzero;"/>
        </g>
        <g transform="matrix(-0.707107,0.707107,-0.707107,-0.707107,263.435,51.5781)">
            <path d="M119.254,56.802C119.182,56.721 119.112,56.637 119.05,56.547C118.879,56.301 118.754,56.024 118.683,55.732C118.645,55.572 118.626,55.411 118.618,55.247C118.561,51.903 118.616,48.559 118.616,45.214C118.618,45.105 118.623,44.997 118.638,44.889C118.671,44.646 118.741,44.408 118.846,44.186C118.973,43.914 119.151,43.667 119.369,43.461C119.586,43.254 119.842,43.089 120.119,42.975C120.78,42.705 121.543,42.744 122.174,43.08C122.366,43.182 122.544,43.311 122.702,43.461C122.88,43.63 123.032,43.826 123.151,44.04C123.283,44.279 123.375,44.539 123.42,44.808C123.439,44.916 123.448,45.024 123.453,45.133C123.51,48.476 123.455,51.821 123.455,55.165C123.453,55.275 123.448,55.383 123.433,55.491C123.396,55.761 123.313,56.025 123.189,56.267C123.078,56.486 122.933,56.687 122.761,56.862C122.608,57.017 122.434,57.152 122.245,57.261C121.675,57.59 120.981,57.672 120.35,57.486C120.115,57.416 119.891,57.311 119.687,57.174C119.596,57.113 119.512,57.045 119.429,56.974C119.368,56.919 119.311,56.862 119.254,56.802Z" style="fill:white;fill-rule:nonzero;"/>
        </g>
        <g transform="matrix(-1,0,0,-1,242.071,160.697)">
            <path d="M120.938,57.583C120.677,57.567 120.423,57.521 120.178,57.428C119.535,57.184 119.017,56.666 118.773,56.023C118.68,55.778 118.634,55.524 118.618,55.263C118.551,51.914 118.616,48.564 118.616,45.214C118.618,45.117 118.622,45.02 118.634,44.923C118.669,44.633 118.757,44.349 118.893,44.09C118.999,43.889 119.133,43.703 119.291,43.539C119.744,43.067 120.382,42.795 121.036,42.795C121.295,42.795 121.555,42.837 121.802,42.92C122.079,43.012 122.339,43.155 122.566,43.34C122.817,43.546 123.027,43.802 123.178,44.09C123.299,44.32 123.382,44.57 123.424,44.826C123.439,44.923 123.447,45.019 123.453,45.117C123.52,48.466 123.455,51.816 123.455,55.165C123.45,55.427 123.413,55.683 123.33,55.932C123.113,56.583 122.616,57.122 121.984,57.391C121.712,57.507 121.427,57.565 121.133,57.583C121.035,57.585 121.036,57.585 120.938,57.583Z" style="fill:white;fill-rule:nonzero;"/>
        </g>
        <g transform="matrix(-0.707107,-0.707107,0.707107,-0.707107,149.806,222.748)">
            <path d="M122.702,56.919C122.622,56.993 122.54,57.063 122.451,57.127C122.252,57.271 122.031,57.384 121.799,57.461C121.566,57.539 121.322,57.58 121.076,57.584C120.418,57.596 119.772,57.331 119.31,56.862C119.158,56.706 119.026,56.53 118.92,56.34C118.788,56.101 118.696,55.841 118.651,55.572C118.632,55.464 118.623,55.356 118.618,55.247C118.561,51.903 118.616,48.559 118.616,45.214C118.618,45.105 118.623,44.997 118.638,44.889C118.675,44.619 118.758,44.355 118.882,44.112C118.981,43.918 119.107,43.738 119.254,43.577C119.737,43.052 120.445,42.762 121.158,42.798C121.403,42.811 121.646,42.861 121.876,42.946C122.157,43.05 122.418,43.207 122.642,43.406C122.866,43.605 123.053,43.846 123.189,44.112C123.301,44.331 123.379,44.566 123.42,44.808C123.439,44.916 123.448,45.024 123.453,45.133C123.51,48.476 123.455,51.821 123.455,55.165C123.452,55.329 123.438,55.491 123.405,55.652C123.345,55.946 123.23,56.228 123.067,56.48C122.992,56.595 122.908,56.7 122.817,56.802C122.76,56.862 122.761,56.862 122.702,56.919Z" style="fill:white;fill-rule:nonzero;"/>
        </g>
        <g transform="matrix(0,-1,1,0,40.6872,201.384)">
            <path d="M123.453,55.263C123.447,55.36 123.439,55.457 123.424,55.553C123.377,55.842 123.277,56.122 123.131,56.375C123.017,56.572 122.875,56.753 122.711,56.91C122.24,57.363 121.591,57.609 120.938,57.583C120.711,57.574 120.485,57.532 120.269,57.46C119.992,57.368 119.732,57.224 119.505,57.039C119.254,56.834 119.044,56.578 118.893,56.29C118.772,56.06 118.689,55.81 118.647,55.553C118.632,55.457 118.624,55.36 118.618,55.263C118.551,51.914 118.616,48.564 118.616,45.214C118.618,45.117 118.622,45.02 118.634,44.923C118.669,44.633 118.757,44.349 118.893,44.09C119.014,43.86 119.172,43.65 119.36,43.47C119.831,43.017 120.48,42.771 121.133,42.797C121.36,42.806 121.586,42.848 121.802,42.92C122.079,43.012 122.339,43.155 122.566,43.34C122.817,43.546 123.027,43.802 123.178,44.09C123.299,44.32 123.382,44.57 123.424,44.826C123.439,44.923 123.447,45.019 123.453,45.117C123.521,48.498 123.521,51.882 123.453,55.263Z" style="fill:white;fill-rule:nonzero;"/>
        </g>
        <g transform="matrix(0.707107,-0.707107,0.707107,0.707107,-21.3643,109.118)">
            <path d="M122.817,43.577C122.926,43.7 123.025,43.829 123.11,43.97C123.264,44.227 123.37,44.512 123.42,44.808C123.439,44.916 123.448,45.024 123.453,45.133C123.51,48.476 123.455,51.821 123.455,55.165C123.453,55.275 123.448,55.383 123.433,55.491C123.396,55.761 123.313,56.025 123.189,56.267C123.078,56.486 122.933,56.687 122.761,56.862C122.608,57.017 122.434,57.152 122.245,57.261C121.627,57.618 120.865,57.682 120.195,57.434C119.914,57.33 119.653,57.173 119.429,56.974C119.205,56.775 119.018,56.534 118.882,56.267C118.77,56.049 118.692,55.814 118.651,55.572C118.632,55.464 118.623,55.356 118.618,55.247C118.561,51.903 118.616,48.559 118.616,45.214C118.618,45.105 118.623,44.997 118.638,44.889C118.671,44.646 118.741,44.408 118.846,44.186C119.126,43.59 119.648,43.126 120.272,42.919C120.479,42.85 120.695,42.809 120.913,42.798C121.158,42.786 121.405,42.811 121.642,42.872C121.906,42.941 122.158,43.054 122.384,43.206C122.475,43.267 122.559,43.334 122.642,43.406C122.703,43.461 122.76,43.518 122.817,43.577Z" style="fill:white;fill-rule:nonzero;"/>
        </g>
    </g>
</svg>
